<mxfile host="app.diagrams.net" agent="Mozilla/5.0 (Macintosh; Intel Mac OS X 10_15_7) AppleWebKit/537.36 (KHTML, like Gecko) Chrome/141.0.0.0 Safari/537.36" version="28.2.5">
  <diagram name="Page-1" id="mWQVUOW0qd0CpDpIAF6l">
    <mxGraphModel dx="1426" dy="824" grid="1" gridSize="10" guides="1" tooltips="1" connect="1" arrows="1" fold="1" page="1" pageScale="1" pageWidth="1654" pageHeight="1169" background="#ffffff" math="0" shadow="0">
      <root>
        <mxCell id="0" />
        <mxCell id="1" parent="0" />
        <mxCell id="1c-j9--FC64B57cA80zY-4" value="EmployeeTable&lt;div&gt;&amp;lt;&amp;lt;interface&amp;gt;&amp;gt;&lt;/div&gt;" style="swimlane;whiteSpace=wrap;html=1;startSize=40;" vertex="1" parent="1">
          <mxGeometry x="560" y="440" width="160" height="120" as="geometry" />
        </mxCell>
        <mxCell id="1c-j9--FC64B57cA80zY-6" value="&lt;ul&gt;&lt;li&gt;Create()&lt;/li&gt;&lt;li&gt;Delete()&lt;/li&gt;&lt;li&gt;Get()&lt;/li&gt;&lt;/ul&gt;" style="text;html=1;align=left;verticalAlign=middle;resizable=0;points=[];autosize=1;strokeColor=none;fillColor=none;" vertex="1" parent="1c-j9--FC64B57cA80zY-4">
          <mxGeometry y="40" width="110" height="80" as="geometry" />
        </mxCell>
        <mxCell id="1c-j9--FC64B57cA80zY-7" value="EmployeeTableImpl" style="swimlane;whiteSpace=wrap;html=1;" vertex="1" parent="1">
          <mxGeometry x="360" y="640" width="200" height="120" as="geometry" />
        </mxCell>
        <mxCell id="1c-j9--FC64B57cA80zY-8" value="&lt;ul&gt;&lt;li&gt;Create()&lt;/li&gt;&lt;li&gt;Delete()&lt;/li&gt;&lt;li&gt;Get()&lt;/li&gt;&lt;/ul&gt;" style="text;html=1;align=left;verticalAlign=middle;resizable=0;points=[];autosize=1;strokeColor=none;fillColor=none;" vertex="1" parent="1c-j9--FC64B57cA80zY-7">
          <mxGeometry y="20" width="110" height="80" as="geometry" />
        </mxCell>
        <mxCell id="1c-j9--FC64B57cA80zY-9" value="EmployeeTableProxy" style="swimlane;whiteSpace=wrap;html=1;" vertex="1" parent="1">
          <mxGeometry x="720" y="640" width="200" height="120" as="geometry" />
        </mxCell>
        <mxCell id="1c-j9--FC64B57cA80zY-10" value="&lt;ul&gt;&lt;li&gt;EmployeeTableImpl obj&lt;/li&gt;&lt;li&gt;Create()&lt;/li&gt;&lt;li&gt;Delete()&lt;/li&gt;&lt;li&gt;Get()&lt;/li&gt;&lt;/ul&gt;" style="text;html=1;align=left;verticalAlign=middle;resizable=0;points=[];autosize=1;strokeColor=none;fillColor=none;" vertex="1" parent="1c-j9--FC64B57cA80zY-9">
          <mxGeometry y="20" width="190" height="100" as="geometry" />
        </mxCell>
        <mxCell id="1c-j9--FC64B57cA80zY-11" value="" style="endArrow=classic;html=1;rounded=0;entryX=0.727;entryY=0.988;entryDx=0;entryDy=0;entryPerimeter=0;exitX=0.5;exitY=0;exitDx=0;exitDy=0;" edge="1" parent="1" source="1c-j9--FC64B57cA80zY-7" target="1c-j9--FC64B57cA80zY-6">
          <mxGeometry relative="1" as="geometry">
            <mxPoint x="430" y="610" as="sourcePoint" />
            <mxPoint x="540" y="610" as="targetPoint" />
          </mxGeometry>
        </mxCell>
        <mxCell id="1c-j9--FC64B57cA80zY-12" value="IS-A" style="edgeLabel;resizable=0;html=1;;align=center;verticalAlign=middle;" connectable="0" vertex="1" parent="1c-j9--FC64B57cA80zY-11">
          <mxGeometry relative="1" as="geometry" />
        </mxCell>
        <mxCell id="1c-j9--FC64B57cA80zY-13" value="" style="endArrow=classic;html=1;rounded=0;entryX=0.691;entryY=1.013;entryDx=0;entryDy=0;entryPerimeter=0;exitX=0.5;exitY=0;exitDx=0;exitDy=0;" edge="1" parent="1" source="1c-j9--FC64B57cA80zY-9" target="1c-j9--FC64B57cA80zY-6">
          <mxGeometry relative="1" as="geometry">
            <mxPoint x="990" y="600" as="sourcePoint" />
            <mxPoint x="1090" y="600" as="targetPoint" />
          </mxGeometry>
        </mxCell>
        <mxCell id="1c-j9--FC64B57cA80zY-14" value="IS-A" style="edgeLabel;resizable=0;html=1;;align=center;verticalAlign=middle;" connectable="0" vertex="1" parent="1c-j9--FC64B57cA80zY-13">
          <mxGeometry relative="1" as="geometry" />
        </mxCell>
        <mxCell id="1c-j9--FC64B57cA80zY-15" value="" style="endArrow=classic;html=1;rounded=0;entryX=1;entryY=0.5;entryDx=0;entryDy=0;exitX=0.005;exitY=0.4;exitDx=0;exitDy=0;exitPerimeter=0;" edge="1" parent="1" source="1c-j9--FC64B57cA80zY-10" target="1c-j9--FC64B57cA80zY-7">
          <mxGeometry relative="1" as="geometry">
            <mxPoint x="540" y="880" as="sourcePoint" />
            <mxPoint x="640" y="880" as="targetPoint" />
          </mxGeometry>
        </mxCell>
        <mxCell id="1c-j9--FC64B57cA80zY-16" value="HAS-A" style="edgeLabel;resizable=0;html=1;;align=center;verticalAlign=middle;" connectable="0" vertex="1" parent="1c-j9--FC64B57cA80zY-15">
          <mxGeometry relative="1" as="geometry" />
        </mxCell>
        <mxCell id="1c-j9--FC64B57cA80zY-17" value="Client" style="rounded=1;whiteSpace=wrap;html=1;" vertex="1" parent="1">
          <mxGeometry x="320" y="480" width="120" height="40" as="geometry" />
        </mxCell>
        <mxCell id="1c-j9--FC64B57cA80zY-18" value="" style="endArrow=classic;html=1;rounded=0;entryX=-0.009;entryY=0.238;entryDx=0;entryDy=0;entryPerimeter=0;exitX=1;exitY=0.5;exitDx=0;exitDy=0;" edge="1" parent="1" source="1c-j9--FC64B57cA80zY-17" target="1c-j9--FC64B57cA80zY-6">
          <mxGeometry width="50" height="50" relative="1" as="geometry">
            <mxPoint x="240" y="620" as="sourcePoint" />
            <mxPoint x="290" y="570" as="targetPoint" />
          </mxGeometry>
        </mxCell>
      </root>
    </mxGraphModel>
  </diagram>
</mxfile>
